<svg width="218" height="25" viewBox="0 0 218 25" fill="none" xmlns="http://www.w3.org/2000/svg">
<g clip-path="url(#clip0_401_2677)">
<path fill-rule="evenodd" clip-rule="evenodd" d="M128.712 11.3061L119.616 1.11704H117.425V24.6789H123.498V14.205L128.417 19.4464H129.078L134.029 14.205V24.6789H140.101V1.11704H137.977L128.712 11.3061ZM71.8573 16.3576C77.7287 12.3281 76.0697 1.21653 66.9383 1.18488H56.7515V24.7015H59.5867L62.6946 17.7912H65.7801L69.76 24.6789H76.3961V23.8061L71.8573 16.3576ZM66.9383 12.4276H62.6901V6.54848C64.0853 6.54848 65.5431 6.51682 66.9383 6.54848C70.3234 6.58466 70.1535 12.4276 66.9383 12.4276ZM42.178 24.6789H47.9913V23.8061L37.496 0.87735H34.9426L24.4831 23.8061V24.6789H30.2964L31.638 21.7303H40.8141L42.178 24.6789ZM38.9046 16.5883H33.5787L36.2215 10.4016L38.9046 16.5883ZM2.83512 24.6789L5.96537 18.6731H10.2449C21.3662 18.6731 21.3662 1.21653 10.2449 1.18488H0V24.7015L2.83512 24.6789ZM10.1912 13.2688H5.94302V6.553C7.28455 6.553 8.79602 6.52134 10.1912 6.553C13.6434 6.58918 13.4467 13.2688 10.1912 13.2688ZM102.851 24.6789H108.665V23.8061L98.1693 0.87735H95.6159L85.1564 23.8061V24.6789H90.9697L92.3336 21.7303H101.51L102.851 24.6789ZM99.569 16.5883H94.2565L96.877 10.4016L99.569 16.5883Z" fill="#3A0B85"/>
<path d="M166.27 5.15106H158.95V24.5975H154.245V5.15106H146.929V0.700989H166.27V5.15106Z" fill="#00BBB4"/>
<path d="M181.555 16.2807C181.557 16.7825 181.529 17.284 181.47 17.7822H169.888C170.358 20.17 172.012 21.2102 174.087 21.2102C175.602 21.1775 177.06 20.6168 178.214 19.6228L180.795 22.49C178.943 24.2131 176.582 24.9955 173.832 24.9955C168.824 24.9955 165.336 21.5539 165.336 16.3486C165.336 11.1433 168.707 7.6022 173.6 7.6022C178.308 7.60673 181.528 11.1342 181.555 16.2807ZM169.901 14.7476H177.128C176.725 12.6311 175.46 11.4372 173.55 11.4372C171.498 11.4417 170.281 12.7035 169.892 14.7522L169.901 14.7476Z" fill="#00BBB4"/>
<path d="M199.366 10.7272L196.2 13.4045C195.774 12.8873 195.239 12.4717 194.636 12.1871C194.032 11.9026 193.374 11.7562 192.708 11.7583C190.432 11.7583 188.612 13.5673 188.612 16.3124C188.612 19.0575 190.4 20.8665 192.69 20.8665C193.37 20.8614 194.04 20.7095 194.657 20.4209C195.274 20.1323 195.823 19.7137 196.267 19.1932L199.398 21.9066C198.62 22.9061 197.621 23.7073 196.482 24.2461C195.343 24.7849 194.095 25.0462 192.837 25.009C187.628 25.009 184.14 21.3278 184.14 16.3124C184.14 11.297 187.628 7.61577 192.837 7.61577C194.091 7.57896 195.335 7.8415 196.47 8.3821C197.604 8.9227 198.596 9.72613 199.366 10.7272Z" fill="#00BBB4"/>
<path d="M206.955 9.82272C208.118 8.1856 209.857 7.60673 211.641 7.60673C215.353 7.60673 218 10.2162 218 14.0512V24.5749H213.6V15.4848C213.6 13.097 212.42 11.7855 210.412 11.7855C208.525 11.7855 206.955 13.0291 206.955 15.521V24.5658H202.573V0H206.973L206.955 9.82272Z" fill="#00BBB4"/>
</g>
<defs>
<clipPath id="clip0_401_2677">
<rect width="218" height="25" fill="white"/>
</clipPath>
</defs>
</svg>
